<svg xmlns="http://www.w3.org/2000/svg" width="116" height="24" viewBox="0 0 116 24"><defs><style>.a{fill:#fff;}.b{fill:#86a4b2;}</style></defs><path class="a" d="M22.061,42.509A5.413,5.413,0,0,1,17.14,47.9c-.437.039-.922.051-1.281.051A15.753,15.753,0,0,1,.257,34.8C.183,34.347.1,33.772.06,33.372S0,32.469,0,32.01a15.314,15.314,0,0,1,.524-3.968.021.021,0,0,1,.022-.021.022.022,0,0,1,.022.019c.013.062.028.123.044.184a3.837,3.837,0,0,0,2.077,2.469c.078.039.145.078.243.118l12.532,5.319s2.76,1.11,3.618,1.544A5.423,5.423,0,0,1,22.061,42.509Z" transform="translate(0 -23.95)"/><path class="b" d="M44.2,4.619c-.045-.016-.09-.032-.134-.051l-.061-.026A2.367,2.367,0,0,1,43.915.247,2.334,2.334,0,0,1,44.923,0H59.312c.026,0,.039.009.041.036V.092a13.124,13.124,0,0,1-.845,4.648A11.239,11.239,0,0,1,56.824,7.83,4.481,4.481,0,0,1,55.013,9.19a.145.145,0,0,1-.058,0L52.436,8.121Z" transform="translate(-36.403)"/><path class="a" d="M285.827,103.173a26.785,26.785,0,0,1-4.407-.362l.485-2.238c.317.076,2.093.266,3.267.33.106,0,.267.019.436.032.245.02.5.042.613.042,1.476,0,1.755-.137,1.755-.854,0-.683-.2-.738-2.074-1.033l-.269-.041-.622-.1c-3.021-.5-3.631-1.049-3.631-3.237,0-2.115,1.355-3.017,4.53-3.017a27.164,27.164,0,0,1,4.357.373l-.485,2.254-.054-.013a33.535,33.535,0,0,0-3.477-.308c-.054,0-.18-.01-.312-.019-.161-.01-.331-.022-.4-.022-1.179,0-1.37.227-1.37.77,0,.706.248.745,1.865.992l.325.041.334.044c3.332.533,4.11.9,4.11,3.288C290.8,102.34,289.458,103.173,285.827,103.173Z" transform="translate(-240.489 -79.236)"/><path class="a" d="M671.66,103.812l.007-10.2,2.78.006-.007,10.2Z" transform="translate(-574.046 -80.014)"/><path class="a" d="M187.189,103.951c-3.156,0-5.259-.632-5.259-3.711V93.61h2.78v6.472c0,1.285,1.2,1.463,2.5,1.463s2.505-.109,2.505-1.435v-6.5h2.652l-.007,6.6C192.354,102.868,190.858,103.951,187.189,103.951Z" transform="translate(-155.491 -80.014)"/><path class="a" d="M378.609,103.951c-3.156,0-5.259-.632-5.259-3.711V93.61h2.78l-.007,6.472c0,1.285,1.2,1.463,2.5,1.463s2.505-.109,2.505-1.435v-6.5h2.652v6.6C383.776,102.868,382.278,103.951,378.609,103.951Z" transform="translate(-319.093 -80.014)"/><path class="a" d="M564.83,103.812V93.61h6.776c2.857,0,4.052.507,4.052,3.64,0,2.022-.536,3.068-1.794,3.5l2.007,3.05h-3.133l-1.839-2.784h-3.312l-.007,2.794Zm2.751-4.931h4.032c.581,0,1.293,0,1.293-1.6,0-1.389-.548-1.5-1.162-1.5h-4.163Z" transform="translate(-482.746 -80.014)"/><path class="a" d="M726.966,103.039c-3.524,0-5.566-.861-5.566-5.265s2.142-5.264,5.6-5.264c3.525,0,5.566.857,5.566,5.236C732.562,102.153,730.421,103.039,726.966,103.039Zm0-8.24c-1.945,0-2.536.594-2.536,2.545v.8c0,1.985.648,2.656,2.568,2.656s2.536-.639,2.536-2.629v-.8C729.534,95.4,728.934,94.8,726.966,94.8Z" transform="translate(-616.562 -79.074)"/><path class="a" d="M463.29,103.829l4.751-10.2h2.324l4.739,10.2h-3.05l-.629-1.4h-4.6l-.642,1.409Zm4.449-3.524,2.79.01-1.384-3.137Z" transform="translate(-395.962 -80.031)"/><path class="b" d="M383.156,10.533c-3.525,0-5.566-.861-5.566-5.265S379.731,0,383.186,0c3.525,0,5.566.857,5.566,5.236C388.752,9.647,386.61,10.533,383.156,10.533Zm0-8.24c-1.943,0-2.536.594-2.536,2.545v.8c0,1.987.648,2.656,2.568,2.656s2.537-.639,2.537-2.629v-.8c0-1.971-.6-2.572-2.571-2.572Z" transform="translate(-322.716)"/><path class="b" d="M181.93,11.332V1.13l6.664.007c2.745,0,4.052.561,4.052,3.752s-1.37,3.794-4.067,3.794h-3.891v2.649Zm2.751-4.793H188.6c.546,0,1.294,0,1.294-1.63s-.757-1.615-1.307-1.615h-3.908Z" transform="translate(-155.491 -0.966)"/><path class="b" d="M279.22,11.332V1.13L286,1.137c2.857,0,4.052.505,4.052,3.638,0,2.022-.536,3.068-1.794,3.5l2.007,3.057h-3.133l-1.84-2.784h-3.312v2.794ZM281.971,6.4H286c.581,0,1.293,0,1.293-1.6,0-1.389-.548-1.5-1.162-1.5h-4.163Z" transform="translate(-238.642 -0.966)"/></svg>